<?xml version="1.0" encoding="utf-8"?>
<!-- Generator: Adobe Illustrator 25.2.0, SVG Export Plug-In . SVG Version: 6.00 Build 0)  -->
<svg version="1.0" id="Capa_1" xmlns="http://www.w3.org/2000/svg" xmlns:xlink="http://www.w3.org/1999/xlink" x="0px" y="0px"
	 width="512px" height="512px" viewBox="0 0 512 512" enable-background="new 0 0 512 512" xml:space="preserve">
<g>
	<g>
		<g>
			<path d="M400,0H112C50.1,0,0,50.1,0,112v288c0,61.9,50.1,112,112,112h288c61.9,0,112-50.1,112-112V112C512,50.1,461.9,0,400,0z
				 M480,400c0,44.2-35.8,80-80,80H112c-44.2,0-80-35.8-80-80V112c0-44.2,35.8-80,80-80h288c44.2,0,80,35.8,80,80V400z"/>
			<path d="M160,112h-32c-8.8,0-16,7.2-16,16v32c0,8.8,7.2,16,16,16h32c8.8,0,16-7.2,16-16v-32C176,119.2,168.8,112,160,112z"/>
			<path d="M160,224h-32c-8.8,0-16,7.2-16,16v32c0,8.8,7.2,16,16,16h32c8.8,0,16-7.2,16-16v-32C176,231.2,168.8,224,160,224z"/>
			<path d="M160,336h-32c-8.8,0-16,7.2-16,16v32c0,8.8,7.2,16,16,16h32c8.8,0,16-7.2,16-16v-32C176,343.2,168.8,336,160,336z"/>
			<rect x="208" y="128" width="192" height="32"/>
			<rect x="208" y="240" width="192" height="32"/>
			<rect x="208" y="352" width="192" height="32"/>
		</g>
	</g>
</g>
</svg>
